<svg width="230" height="240" viewBox="0 0 230 240" xmlns="http://www.w3.org/2000/svg"
    preserveAspectRatio="xMidYMid meet" version="1.0">
    <g>
        <g id="svg_1" fill="#000000" transform="translate(0 256) scale(0.1 -0.1)">
            <path id="svg_2"
                d="m923,2490c-231,-59 -279,-78 -380,-146c-249,-168 -352,-330 -448,-704c-101,-397 -99,-530 11,-755c70,-145 190,-292 308,-379c101,-75 177,-115 367,-190c130,-51 195,-71 303,-91c172,-31 333,-34 386,-7c19,10 62,24 95,31c121,26 290,125 379,223c95,104 224,298 252,377c30,87 38,138 65,450c22,253 22,266 6,345c-9,44 -30,107 -47,139c-16,31 -30,70 -30,86c0,42 -17,81 -50,116c-15,17 -49,63 -74,103c-25,40 -80,108 -122,151c-81,86 -175,142 -319,194c-99,35 -424,107 -477,106c-23,-1 -125,-23 -225,-49zm467,-34c123,-23 313,-89 394,-138c42,-25 108,-79 161,-132c101,-102 150,-186 226,-391c23,-60 48,-128 56,-150c21,-55 21,-258 -1,-403c-9,-62 -16,-137 -16,-168c0,-30 -7,-71 -16,-92c-8,-20 -19,-61 -24,-90c-11,-66 -160,-322 -215,-370c-38,-34 -182,-132 -256,-176c-65,-37 -206,-83 -300,-97c-153,-22 -363,14 -614,107c-151,56 -207,89 -369,222c-180,147 -231,216 -297,403c-53,148 -56,189 -29,340c34,193 87,438 108,499c71,204 224,418 362,505c63,40 206,102 276,120c133,34 407,39 554,11z" />
            <path id="svg_3"
                d="m1205,1823c-87,-9 -189,-12 -310,-8c-120,4 -185,2 -195,-5c-11,-8 -6,-9 21,-5c23,4 49,1 74,-9c20,-9 47,-16 59,-16c12,0 31,-7 44,-15c16,-12 26,-13 42,-5c11,6 20,14 20,18c0,4 129,9 288,12c355,5 362,5 497,-3c61,-3 104,-4 97,-1c-6,3 -9,11 -6,16c5,8 -13,9 -57,5c-43,-5 -105,0 -193,13c-145,23 -196,23 -381,3z" />
            <path id="svg_4"
                d="m1154,1725c11,-8 26,-15 34,-15c7,0 10,-4 7,-10c-3,-5 -30,-10 -58,-10l-52,0l29,-15c24,-13 39,-14 83,-5c29,6 55,16 59,21c3,5 9,7 14,4c19,-12 69,-12 74,0c3,9 53,15 163,21c213,11 136,22 -157,23c-191,0 -213,-1 -196,-14z" />
            <path id="svg_5" d="m1568,1673c7,-3 16,-2 19,1c4,3 -2,6 -13,5c-11,0 -14,-3 -6,-6z" />
            <path id="svg_6"
                d="m632,1632c-32,-19 -59,-40 -59,-48c0,-7 4,-11 9,-8c4,3 8,0 8,-6c0,-8 18,-11 53,-8c42,2 51,0 48,-12c-3,-8 -6,-34 -9,-58c-3,-35 -6,-41 -18,-31c-8,7 -31,13 -51,15l-36,3l27,-28c29,-30 31,-58 6,-72c-8,-4 -42,-11 -75,-15l-60,-8l55,-7c30,-5 62,-6 70,-4c21,6 31,-4 58,-52c30,-57 29,-82 -2,-76c-13,3 -32,0 -43,-7c-15,-9 -12,-10 20,-6c35,4 43,1 75,-33c36,-36 105,-91 116,-91c16,0 -10,30 -35,40c-16,7 -32,17 -35,21c-6,10 44,-7 61,-20c15,-12 95,-21 95,-10c0,5 -13,9 -30,9c-16,0 -30,5 -30,11c0,6 9,8 20,4c25,-8 138,24 122,34c-8,5 2,15 28,30c42,23 53,35 23,24c-10,-4 8,17 39,46c31,29 60,61 63,72c4,10 10,17 14,14c5,-2 9,29 10,70c1,61 -1,77 -14,81c-14,6 -14,8 1,25c9,11 13,20 8,21c-5,0 11,4 36,7c42,6 46,8 54,43c5,21 7,41 3,44c-12,12 -52,10 -78,-2c-15,-7 -30,-10 -33,-6c-11,11 -66,11 -66,0c0,-6 -7,-5 -15,2c-8,7 -15,8 -15,3c0,-6 -14,-8 -32,-5c-18,3 -47,5 -65,5c-18,0 -30,5 -27,9c6,10 -70,3 -101,-8c-11,-5 -16,-4 -12,3c7,11 -46,8 -65,-3c-6,-4 -8,-2 -5,3c4,6 -6,13 -23,15c-21,3 -46,-5 -88,-30zm272,-74c-5,-9 -2,-9 9,1c15,12 17,11 17,-10l0,-22l25,23l25,23l0,-22c0,-19 3,-20 20,-11c12,6 27,7 38,2c9,-5 26,-8 37,-8c40,2 48,-39 9,-47c-18,-3 -24,-1 -20,9c7,18 -13,29 -27,15c-8,-8 -8,-11 1,-11c7,0 12,-7 12,-16c0,-11 6,-15 20,-11c11,3 20,1 20,-4c0,-4 7,-6 15,-3c8,4 15,1 15,-5c0,-6 -4,-11 -9,-11c-5,0 -7,-10 -4,-21c5,-19 4,-20 -16,-9c-12,6 -27,9 -34,7c-7,-2 0,-10 16,-17c21,-10 26,-18 21,-34c-9,-31 -35,-57 -53,-54c-9,2 -15,-3 -13,-11c2,-10 -5,-12 -27,-8c-25,5 -29,3 -24,-9c5,-12 1,-15 -13,-11c-49,14 -84,18 -84,9c0,-6 -16,-4 -37,3c-29,11 -37,18 -36,34c2,18 -1,20 -22,15c-16,-4 -25,-2 -25,6c0,7 7,10 16,6c10,-4 14,-1 11,6c-2,7 -13,12 -23,11c-10,-1 -22,4 -26,10c-14,22 -8,43 12,44c11,1 20,-2 20,-7c0,-16 41,-32 66,-26c18,5 24,13 24,34c0,52 -50,71 -85,32c-10,-11 -22,-20 -27,-20c-4,0 -8,9 -8,20c0,12 7,20 16,20c13,0 14,3 4,15c-9,11 -8,19 4,37c9,12 16,19 16,14c0,-5 7,-3 15,4c12,10 15,10 16,-1c0,-10 2,-11 6,-1c2,6 9,12 14,12c6,0 7,-5 3,-11c-4,-7 1,-7 16,1c21,11 22,10 17,-6c-6,-15 -3,-15 11,3c18,24 38,32 26,11zm-58,-127c-9,-13 -16,-14 -35,-2c-12,8 -13,12 -1,26c12,14 15,14 28,1c8,-8 11,-19 8,-25z" />
            <path id="svg_7" d="m980,1383c8,-3 24,-10 35,-15c20,-9 20,-9 1,6c-11,9 -27,16 -35,15c-14,0 -14,-1 -1,-6z" />
            <path id="svg_8" d="m850,1328c-12,-22 -12,-22 6,-6c10,10 15,20 12,24c-4,3 -12,-5 -18,-18z" />
            <path id="svg_9" d="m932,1328c2,-6 10,-14 16,-16c7,-2 10,2 6,12c-7,18 -28,22 -22,4z" />
            <path id="svg_10"
                d="m1678,1654c-16,-9 -29,-10 -33,-4c-4,6 -15,5 -30,-2c-17,-7 -32,-7 -55,0c-30,11 -32,10 -46,-23c-18,-44 -19,-42 19,-49l34,-6l-5,-75c-6,-94 16,-165 65,-217l36,-36l-24,-39c-20,-34 -21,-36 -3,-20c25,21 33,15 26,-19c-5,-25 -7,-26 -54,-20c-38,5 -48,4 -42,-5c5,-9 1,-10 -17,-5c-13,4 -29,8 -35,9c-7,2 -19,9 -28,16c-19,16 -22,46 -3,35c8,-5 8,-3 -2,9c-7,9 -18,14 -24,10c-6,-3 -7,-1 -3,5c4,7 2,20 -3,29c-8,14 -11,15 -11,3c-1,-8 -6,-4 -12,10c-6,14 -14,81 -17,150l-6,125l-33,-68c-19,-38 -31,-71 -28,-74c3,-3 1,-14 -5,-24c-7,-14 -6,-17 4,-13c10,4 14,-2 12,-20c-2,-14 -6,-30 -10,-35c-4,-7 0,-8 11,-4c14,5 15,3 4,-17c-11,-21 -10,-22 6,-16c15,6 13,1 -6,-20c-21,-23 -22,-26 -6,-20c20,7 20,7 0,-15c-15,-18 -16,-21 -3,-16c12,4 17,-1 17,-17c0,-21 -5,-23 -55,-23c-36,0 -58,-5 -64,-14c-12,-19 -11,-32 1,-24c6,3 10,1 10,-5c0,-20 -30,-22 -56,-5c-25,16 -25,17 -8,36c11,13 13,19 4,19c-7,0 -2,9 11,20c35,28 2,26 -42,-3c-24,-16 -38,-36 -48,-70c-8,-26 -19,-47 -23,-47c-5,0 -7,9 -3,20c17,54 -26,42 -107,-30c-27,-23 -48,-36 -48,-30c0,7 -8,10 -19,7c-14,-3 -18,-1 -14,10c5,13 3,13 -16,3c-13,-6 -25,-9 -28,-6c-3,3 -17,-1 -32,-8c-14,-7 -37,-11 -51,-10c-14,1 -31,-3 -39,-10c-11,-8 -15,-8 -18,0c-4,13 -40,7 -61,-9c-7,-5 -15,-7 -19,-3c-3,3 -17,-1 -30,-9c-13,-9 -23,-11 -23,-6c0,14 -81,-24 -92,-43c-11,-19 -1,-20 31,-2c14,8 31,12 38,9c7,-3 20,0 28,7c12,10 15,10 15,0c0,-9 7,-7 20,5c14,13 20,14 20,5c0,-9 6,-8 20,5c11,10 20,13 20,7c0,-11 45,-10 57,1c10,11 23,8 23,-5c0,-9 -54,-23 -155,-43c-141,-27 -154,-28 -149,-13c8,27 -38,23 -63,-4c-17,-18 -21,-33 -18,-73c3,-43 7,-52 32,-66c15,-9 27,-22 25,-28c-1,-6 6,-14 15,-18c10,-4 29,-15 42,-25c28,-21 49,-24 32,-4c-7,8 -13,26 -14,41c-2,22 -10,30 -41,40c-41,14 -56,29 -56,58c0,14 9,17 58,17c31,0 64,5 72,11c13,9 12,10 -2,5c-12,-3 -18,0 -18,9c0,27 95,45 231,45c120,0 131,-2 164,-25c58,-39 144,-67 225,-73l75,-6l-40,-13l-40,-13l40,6c21,3 53,13 70,22c44,23 126,19 234,-12c51,-15 95,-25 97,-23c7,7 -115,49 -181,64l-60,13l70,-4c39,-2 84,-10 102,-19c53,-28 113,-21 231,24c141,55 201,63 245,33c43,-30 87,-39 87,-19c0,24 -46,47 -120,58c-73,12 -98,31 -32,25c21,-2 35,1 32,7c-5,9 -18,12 -65,18c-11,1 -30,8 -42,15c-12,6 -28,12 -36,12c-8,0 -35,16 -60,35c-25,19 -51,35 -56,35c-19,0 -12,-18 10,-25c27,-9 16,-19 -24,-21c-18,-1 -45,-4 -62,-8l-30,-7l37,34c21,19 44,50 52,69c15,35 15,35 63,28c70,-11 127,2 189,45c30,21 52,40 50,42c-3,3 -19,-5 -35,-17c-22,-15 -31,-18 -31,-8c0,18 50,118 59,118c3,0 24,-12 44,-26c21,-14 41,-24 43,-21c3,3 -11,15 -31,27c-28,18 -34,25 -23,32c10,8 9,9 -4,5c-14,-5 -16,4 -16,74c0,43 -3,92 -7,108c-6,27 -4,29 32,36l38,7l-32,16c-18,9 -33,21 -33,28c0,10 -71,24 -132,25c-10,0 -18,4 -18,9c0,5 -14,8 -30,6c-17,-2 -33,1 -36,6c-4,6 -9,6 -14,-1c-4,-8 -14,-9 -31,-2c-17,6 -33,5 -51,-5zm137,-81c-5,-15 -4,-16 6,-5c7,6 17,12 22,12c4,0 5,-6 1,-12c-4,-7 3,-4 16,7l23,20l-13,-25l-13,-25l22,19c22,20 22,20 15,0c-7,-17 -6,-17 9,-5c17,13 23,6 18,-21c-1,-7 8,-10 25,-7c15,2 24,-29 24,-81c0,-61 -23,-102 -58,-105c-11,0 -27,-9 -36,-18c-19,-19 -41,-23 -30,-6c3,6 -5,3 -19,-6c-18,-12 -36,-15 -57,-10c-29,6 -30,8 -13,21c16,12 14,13 -21,11c-27,-1 -41,3 -50,16c-9,14 -8,20 4,27c13,9 8,14 -11,12c-4,-1 -5,7 -2,17c3,10 0,22 -6,25c-6,4 -11,19 -11,34c-1,26 -1,27 -16,7c-16,-19 -16,-19 -9,5c4,14 26,43 48,65c28,28 36,33 27,16l-13,-24l37,21c45,27 57,28 50,5c-4,-13 0,-11 12,5c20,26 29,29 19,5zm-405,-483c0,-5 -7,-7 -15,-4c-8,4 -15,8 -15,10c0,2 7,4 15,4c8,0 15,-4 15,-10zm-50,-16c-8,-8 -23,-20 -34,-26c-19,-10 -20,-10 -7,5c16,20 12,21 -24,7c-20,-8 -26,-7 -23,2c4,11 40,22 87,27c11,1 11,-2 1,-15zm159,-25c28,-12 51,-25 51,-29c0,-12 -59,-30 -99,-30c-20,0 -47,7 -59,16c-28,19 -19,39 10,23c19,-10 20,-9 16,15c-7,33 10,34 81,5zm-108,-70c40,-9 69,-9 120,1c54,10 80,10 135,0c127,-23 102,-29 -116,-29c-219,1 -468,18 -454,32c12,11 257,8 315,-4zm-588,-12c17,10 57,13 57,3c0,-10 -36,-20 -74,-20c-25,0 -27,2 -15,16c8,10 15,12 17,5c2,-6 9,-8 15,-4zm945,-57c-21,-12 -51,-19 -70,-17c-18,2 -44,-2 -58,-8c-32,-15 -90,-18 -90,-6c0,6 -12,10 -27,11c-123,2 -141,4 -136,17c4,10 -3,9 -32,-3c-21,-8 -43,-13 -50,-10c-7,2 -16,2 -19,-1c-10,-11 -57,-12 -50,-2c3,6 -4,7 -20,3c-14,-3 -34,-3 -43,1c-19,8 -29,11 -53,14c-13,1 -13,2 0,11c9,6 150,10 350,9l335,0l-37,-19z" />
            <path id="svg_11"
                d="m1861,1448c-11,-30 -5,-45 22,-52c31,-8 66,28 51,52c-6,9 -23,18 -38,20c-20,3 -28,-2 -35,-20zm59,-13c0,-8 -7,-15 -15,-15c-8,0 -15,7 -15,15c0,8 7,15 15,15c8,0 15,-7 15,-15z" />
            <path id="svg_12"
                d="m1156,1298c-10,-24 -20,-37 -23,-30c-2,6 -9,12 -14,12c-6,0 -7,-5 -4,-10c4,-6 -5,-23 -20,-38c-51,-51 -47,-67 5,-17c46,44 88,110 77,121c-2,2 -12,-15 -21,-38z" />
            <path id="svg_13" d="m2030,1336c0,-2 7,-7 16,-10c8,-3 12,-2 9,4c-6,10 -25,14 -25,6z" />
            <path id="svg_14" d="m1432,1295c0,-16 2,-22 5,-12c2,9 2,23 0,30c-3,6 -5,-1 -5,-18z" />
            <path id="svg_15"
                d="m995,1145c-16,-13 -26,-24 -21,-25c4,0 21,11 38,25c16,14 26,25 21,25c-4,0 -21,-11 -38,-25z" />
            <path id="svg_16" d="m1548,1163c6,-2 18,-2 25,0c6,3 1,5 -13,5c-14,0 -19,-2 -12,-5z" />
            <path id="svg_17"
                d="m1980,1125l-35,-13l60,0c70,1 122,-21 129,-55c3,-12 7,-31 9,-42c3,-11 5,-3 6,17c2,56 -17,86 -58,98c-46,13 -67,12 -111,-5z" />
            <path id="svg_18"
                d="m305,1095c-22,-8 -41,-15 -42,-15c-2,0 -16,-24 -33,-52c-18,-32 -30,-67 -30,-89c0,-41 18,-99 30,-99c5,0 2,16 -6,36c-14,33 -14,40 1,73c33,75 42,86 99,120l58,35l76,-13c41,-7 82,-15 91,-17c9,-2 0,3 -19,12c-49,23 -174,28 -225,9z" />
            <path id="svg_19"
                d="m2010,971c0,-7 -4,-9 -10,-6c-5,3 -7,0 -5,-7c3,-7 17,-18 30,-25c32,-14 35,5 5,32c-12,11 -20,13 -20,6z" />
            <path id="svg_20"
                d="m2117,933c5,-15 3,-16 -8,-5c-31,29 -34,14 -13,-72c8,-35 -3,-43 -74,-52c-33,-4 -51,-11 -49,-18c3,-6 -4,-21 -15,-33c-22,-24 -16,-52 7,-33c8,6 12,17 9,23c-3,8 9,12 33,12c25,0 37,4 36,13c-2,6 3,12 11,12c8,0 28,12 45,26c28,23 31,32 31,79c0,30 -4,57 -10,60c-6,4 -7,-1 -3,-12z" />
            <path id="svg_21" d="m641,896c2,-2 60,-5 129,-8c75,-3 107,-2 80,3c-45,8 -217,12 -209,5z" />
            <path id="svg_22" d="m580,880c-18,-12 -2,-12 25,0c13,6 15,9 5,9c-8,0 -22,-4 -30,-9z" />
            <path id="svg_23"
                d="m1269,805c-15,-8 -29,-21 -32,-29c-3,-8 -23,-24 -44,-36c-21,-11 -27,-18 -15,-14c22,5 23,4 12,-16c-11,-20 -10,-20 27,4c63,41 134,59 187,48c33,-7 44,-6 39,1c-4,6 10,1 31,-11c47,-28 54,-28 30,-1c-10,12 -17,24 -16,28c6,10 -59,28 -128,34c-47,5 -72,2 -91,-8z" />
            <path id="svg_24"
                d="m1259,682c-33,-17 -55,-36 -57,-48c-3,-18 -2,-18 15,2c10,12 32,24 48,27c17,3 41,9 54,13c19,6 22,4 16,-7c-7,-11 -5,-11 9,1c16,13 20,12 32,-5c8,-11 21,-28 28,-37c12,-14 12,-19 1,-35c-20,-25 -18,-32 5,-28c16,3 20,-2 21,-28c1,-27 3,-24 11,17c12,53 -1,113 -28,141c-25,24 -94,19 -155,-13z" />
        </g>
    </g>
</svg>