<svg width="145" height="175" xmlns="http://www.w3.org/2000/svg" preserveAspectRatio="xMidYMid meet" version="1.0">

 <g>
  <title>Layer 1</title>
  <g id="svg_1" fill="#000000" transform="translate(0 200) scale(0.1 -0.1)">
   <path id="svg_2" d="m12,1978c-17,-17 -17,-1719 0,-1736c17,-17 1399,-17 1416,0c9,9 12,167 12,648l0,635l-233,233l-232,232l-476,0c-356,0 -478,-3 -487,-12zm908,-276c0,-148 3,-211 12,-220c9,-9 72,-12 220,-12l208,0l0,-580l0,-580l-640,0l-640,0l0,800l0,800l420,0l420,0l0,-208zm235,-2l150,-150l-153,0l-152,0l0,150c0,83 1,150 3,150c1,0 70,-67 152,-150z"/>
   <path id="svg_3" d="m773,1178c-6,-7 -48,-125 -93,-262c-86,-258 -89,-277 -43,-284c11,-2 24,3 30,10c6,7 48,125 93,262c86,258 89,277 43,284c-11,2 -24,-3 -30,-10z"/>
   <path id="svg_4" d="m372,1017c-50,-51 -92,-99 -92,-107c0,-20 181,-200 201,-200c19,0 39,20 39,39c0,9 -33,48 -72,88l-72,73l72,73c72,72 82,93 60,115c-23,23 -44,11 -136,-81z"/>
   <path id="svg_5" d="m932,1098c-22,-22 -12,-43 60,-115l72,-73l-72,-73c-39,-40 -72,-79 -72,-88c0,-19 20,-39 40,-39c20,0 200,180 200,200c0,20 -181,200 -201,200c-8,0 -20,-5 -27,-12z"/>
  </g>
 </g>
</svg>